<?xml version="1.0" encoding="UTF-8"?>
<svg version="1.1" xmlns="http://www.w3.org/2000/svg" width="412" height="137">
<path d="M0 0 C2.94435762 1.32336188 2.94435762 1.32336188 5.29296875 0.109375 C6.86112123 -0.78086491 8.40397637 -1.7175951 9.9140625 -2.703125 C15.36885369 -5.99583532 21.89567642 -5.54436021 28.0625 -5 C35.29166028 -3.12786177 42.02477871 1.43504877 46.17016602 7.66455078 C49.88170386 14.5357005 49.57133163 21.71088844 49.41918945 29.29589844 C49.37453858 31.52301508 49.35765539 33.74905056 49.34570312 35.9765625 C49.24292906 46.81957094 49.24292906 46.81957094 48.0625 48 C45.734375 48.2734375 45.734375 48.2734375 42.8125 48.375 C41.85859375 48.42398438 40.9046875 48.47296875 39.921875 48.5234375 C37.0625 48 37.0625 48 34.234375 46.2578125 C30.39448078 40.49797118 31.51338697 33.80568485 31.61328125 27.08203125 C31.68956565 20.48415352 31.68956565 20.48415352 28.71484375 14.78125 C25.60797095 12.69474927 23.81068823 12 20.0625 12 C15.844875 13.53820271 15.844875 13.53820271 12.90551758 16.77172852 C11.8883886 19.46021279 11.82300412 21.59224608 11.82421875 24.46484375 C11.80810547 25.51220703 11.79199219 26.55957031 11.77539062 27.63867188 C11.75849406 29.83392553 11.75324361 32.02930038 11.75976562 34.22460938 C11.60691173 42.24697335 11.60691173 42.24697335 8.73828125 46.21484375 C5.17694915 48.59079816 3.26291877 48.75007478 -0.9375 48 C-3.6171875 46.2109375 -3.6171875 46.2109375 -5.9375 43 C-6.62601607 39.00282374 -6.59148421 35.04812813 -6.5625 31 C-6.5625 28.85412716 -6.57507226 26.70820932 -6.6015625 24.5625 C-6.59310303 23.14130859 -6.59310303 23.14130859 -6.58447266 21.69140625 C-7.00675018 18.47205117 -8.04140283 16.61404795 -9.9375 14 C-12.82111023 12.28542095 -14.58225538 11.99259907 -17.9375 12.0625 C-22.03395097 13.34264093 -23.38710274 14.49320377 -25.9375 18 C-26.58275858 22.16412453 -26.49998981 26.29395537 -26.4375 30.5 C-26.26673421 41.99385131 -26.26673421 41.99385131 -29.109375 46.2578125 C-32.30970374 48.22928573 -33.96533763 48.56613807 -37.6875 48.375 C-38.65171875 48.34148437 -39.6159375 48.30796875 -40.609375 48.2734375 C-42.9375 48 -42.9375 48 -43.9375 47 C-44.20625942 42.74766986 -44.2089816 38.48905858 -44.23266602 34.22924805 C-44.24968387 32.10201598 -44.29351493 29.97641981 -44.33789062 27.84960938 C-44.44489834 18.6676723 -43.72093481 10.85408175 -37.89453125 3.37890625 C-26.64544226 -6.14901065 -12.67659273 -8.63087164 0 0 Z " fill="#FFFFFF" transform="translate(158.9375,38)"/>
<path d="M0 0 C2.10353495 -0.0810206 4.20795952 -0.13919907 6.3125 -0.1875 C7.48425781 -0.22230469 8.65601563 -0.25710938 9.86328125 -0.29296875 C13 0 13 0 14.85546875 1.32421875 C16.81829283 4.19811475 17.12563566 6.74196034 17.1418457 10.11669922 C17.14888016 10.94120575 17.15591461 11.76571228 17.16316223 12.61520386 C17.16732651 13.50273346 17.17149078 14.39026306 17.17578125 15.3046875 C17.19897736 17.18620913 17.22309461 19.06771959 17.24804688 20.94921875 C17.283172 23.91397608 17.31251503 26.87832153 17.32592773 29.84326172 C17.34141052 32.7059096 17.38161811 35.56735714 17.42578125 38.4296875 C17.42387283 39.31316864 17.42196442 40.19664978 17.41999817 41.10690308 C17.50243004 45.25980824 17.65830692 47.45571554 19.91308594 51.04736328 C22.68374932 53.63975516 24.36817023 53.89771594 28.03515625 54.13671875 C31.04261638 53.92745214 32.72971781 52.93641716 35 51 C37.10101595 48.3259797 36.99846976 46.95715315 36.875 43.5 C35.8913214 39.56528562 35.1226459 38.48451725 32 36 C29.00928037 35.1313308 29.00928037 35.1313308 25.8125 34.8125 C20.06944444 34.06944444 20.06944444 34.06944444 19 33 C18.35464581 28.02155339 18.25541772 24.20093916 20.9375 19.875 C25.16294546 17.28799257 28.17039453 17.18103362 33 18 C40.38707699 20.01875845 47.09331937 23.40957145 51.28125 30.0234375 C55.25081233 37.65066798 56.29727242 45.19471804 53.9375 53.5625 C51.45440626 60.1995543 47.05576863 65.20913227 40.75 68.4375 C32.76364728 71.99941331 23.92026028 72.41920646 15.625 69.4375 C8.22674137 66.00259421 4.07447535 61.03868444 0.86190796 53.66853333 C-0.70255776 48.82482715 -0.48803891 44.00943493 -0.390625 38.96484375 C-0.38496521 37.84557999 -0.37930542 36.72631622 -0.37347412 35.57313538 C-0.35123251 32.02747313 -0.30105731 28.48285252 -0.25 24.9375 C-0.22991929 22.52149905 -0.21167129 20.10548214 -0.1953125 17.68945312 C-0.15140784 11.79261835 -0.08461849 5.89638363 0 0 Z " fill="#FFFFFF" transform="translate(210,15)"/>
<path d="M0 0 C5.12127084 4.05551835 8.0954323 8.13580831 9.80859375 14.4921875 C10.23600356 19.27357924 10.26148831 23.99180456 10.1652832 28.78808594 C10.12063233 31.01520258 10.10374914 33.24123806 10.09179688 35.46875 C9.98902281 46.31175844 9.98902281 46.31175844 8.80859375 47.4921875 C-0.83074576 48.46408785 -0.83074576 48.46408785 -4.81640625 45.6171875 C-7.02745839 42.20010692 -7.31165229 40.28316353 -7.33203125 36.22265625 C-7.35136719 35.16884766 -7.37070313 34.11503906 -7.390625 33.02929688 C-7.42429877 30.80812315 -7.44269444 28.58666179 -7.4453125 26.36523438 C-7.53081922 19.8775815 -7.53081922 19.8775815 -10.5546875 14.29296875 C-13.65260499 12.17720584 -15.43501303 11.4921875 -19.19140625 11.4921875 C-22.36904756 12.65324875 -24.47017272 13.61416407 -26.62890625 16.2421875 C-27.47582389 19.62985804 -27.03354619 22.12362773 -26.19140625 25.4921875 C-23.7143887 28.52853159 -21.7886483 30.30083737 -17.84375 30.7734375 C-16.03126679 30.91947931 -14.21876671 31.06531205 -12.40625 31.2109375 C-10.19140625 31.4921875 -10.19140625 31.4921875 -9.19140625 32.4921875 C-8.55014401 37.43906763 -8.4667766 41.28447141 -11.06640625 45.6171875 C-15.54291822 48.30309468 -19.09831281 48.30434994 -24.19140625 47.4921875 C-31.09072008 45.48409453 -37.56892535 41.62119998 -41.4765625 35.46875 C-45.07505424 28.52972292 -46.59963027 21.5816928 -44.47265625 13.89453125 C-41.35882733 5.57006119 -37.1999151 0.66312205 -29.375 -3.52734375 C-19.35028679 -8.02860138 -8.7732516 -6.03649753 0 0 Z " fill="#FFFFFF" transform="translate(103.19140625,38.5078125)"/>
<path d="M0 0 C5.31930411 4.17751141 8.91217818 8.49343444 11 15 C11.25358952 17.70923929 11.37690672 20.17038625 11.328125 22.8671875 C11.32625183 23.58738068 11.32437866 24.30757385 11.32244873 25.04959106 C11.31577456 26.55719703 11.30195357 28.06478705 11.28125 29.57226562 C11.24980343 31.88948495 11.24024434 34.2060249 11.234375 36.5234375 C11.22521538 37.99219588 11.21484296 39.46094731 11.203125 40.9296875 C11.19675018 41.97175858 11.19675018 41.97175858 11.19024658 43.03488159 C11.11724497 47.88275503 11.11724497 47.88275503 10 49 C7.63671875 49.23828125 7.63671875 49.23828125 4.6875 49.3125 C3.23923828 49.36857422 3.23923828 49.36857422 1.76171875 49.42578125 C-1.79789933 48.87698582 -2.75904956 47.77160892 -5 45 C-5.49829102 42.52978516 -5.49829102 42.52978516 -5.50390625 39.7890625 C-5.52259766 38.79132813 -5.54128906 37.79359375 -5.56054688 36.765625 C-5.56119141 35.72921875 -5.56183594 34.6928125 -5.5625 33.625 C-5.43261058 22.87245216 -5.43261058 22.87245216 -11 14 C-14.77919961 13.07302651 -17.10708755 12.63471763 -20.75 14.125 C-23.34098512 16.28415426 -24.69439223 17.88104811 -26 21 C-25.92815992 24.52016381 -25.52184345 26.34159938 -23.328125 29.109375 C-20.45387737 31.44349556 -18.46082115 31.73868095 -14.8125 32.1875 C-9.06944444 32.93055556 -9.06944444 32.93055556 -8 34 C-7.52030688 38.75761206 -7.18681408 43.33490501 -9.3125 47.6875 C-14.46012948 50.20145858 -20.0759342 49.85171387 -25.5078125 48.26953125 C-33.41991003 44.98399923 -38.4438234 40.48679355 -42.01953125 32.67578125 C-44.94069894 24.70367024 -44.3304778 17.74499347 -41 10 C-37.80100301 3.45954057 -32.43260257 0.11693588 -26 -3 C-17.41366838 -5.82783377 -7.67589748 -4.60553849 0 0 Z " fill="#FFFFFF" transform="translate(310,37)"/>
<path d="M0 0 C0.85980469 0.00128906 1.71960938 0.00257812 2.60546875 0.00390625 C3.33378906 0.14699219 4.06210937 0.29007813 4.8125 0.4375 C6.8810643 3.54034645 7.06589622 4.23104821 7.0871582 7.75024414 C7.10145622 9.05288963 7.10145622 9.05288963 7.11604309 10.3818512 C7.11513168 11.31931686 7.11422028 12.25678253 7.11328125 13.22265625 C7.11756638 14.19351669 7.1218515 15.16437714 7.12626648 16.16465759 C7.13201376 18.22328919 7.13250712 20.28194111 7.12817383 22.34057617 C7.12503642 25.46374123 7.14838931 28.58593803 7.17382812 31.70898438 C7.17610358 33.71354048 7.17680347 35.71809911 7.17578125 37.72265625 C7.184991 38.6459523 7.19420074 39.56924835 7.20368958 40.52052307 C7.1338423 50.50619839 4.98497054 58.25598653 -2 65.5234375 C-8.20815275 70.95557115 -14.8003778 72.58449222 -22.9375 72.5625 C-24.38382813 72.56636719 -24.38382813 72.56636719 -25.859375 72.5703125 C-28.1875 72.4375 -28.1875 72.4375 -29.1875 71.4375 C-29.33917148 69.48327134 -29.40929996 67.52240271 -29.4375 65.5625 C-29.47617187 63.95761719 -29.47617187 63.95761719 -29.515625 62.3203125 C-29.1875 59.4375 -29.1875 59.4375 -28.015625 57.64453125 C-24.89550531 55.58445223 -21.39384853 55.15095352 -17.78125 54.37890625 C-14.7133686 53.26541315 -13.81196602 52.22304269 -12.1875 49.4375 C-11.27670199 46.70510596 -11.06331259 45.1142361 -11.06152344 42.30493164 C-11.05771667 41.47719742 -11.05390991 40.6494632 -11.04998779 39.79664612 C-11.04896057 38.90597946 -11.04793335 38.01531281 -11.046875 37.09765625 C-11.0285528 35.21157641 -11.00898304 33.32550835 -10.98828125 31.43945312 C-10.95926901 28.46569862 -10.93749881 25.49270426 -10.93701172 22.51879883 C-10.93368226 19.64856506 -10.89917074 16.78008592 -10.859375 13.91015625 C-10.8664447 13.02151382 -10.8735144 12.1328714 -10.88079834 11.21730042 C-10.7590074 5.05269883 -10.7590074 5.05269883 -7.80834961 1.87646484 C-4.93787062 0.30044219 -3.25193164 -0.07379573 0 0 Z " fill="#FFFFFF" transform="translate(50.1875,32.5625)"/>
<path d="M0 0 C2 2 2 2 2.3125 5.8125 C2.22274109 9.60999234 1.3925819 11.96326143 -1 15 C-3.75127441 16.3756372 -6.18178811 16.22789395 -9.25 16.375 C-14.14605653 16.72124046 -17.883973 17.1076567 -22 20 C-23.82285557 22.73428335 -24.47456271 24.41556827 -25.3125 27.5 C-26.30214151 30.49817502 -26.8213194 31.82657471 -29.125 34.0625 C-33.08541111 35.3539384 -36.86598814 35.44415003 -41 35 C-43.27887122 32.72112878 -42.31144191 27.93634118 -42.31469727 24.86328125 C-42.16014043 17.16653385 -39.87591537 12.8775076 -34.875 7.25 C-25.48598036 -1.29791996 -12.17185218 -1.77158807 0 0 Z " fill="#00AEEF" transform="translate(371,33)"/>
<path d="M0 0 C1.07507813 0.00644531 2.15015625 0.01289062 3.2578125 0.01953125 C5.875 0.1875 5.875 0.1875 6.875 1.1875 C7.06550153 10.9711143 5.84453276 19.492488 -0.73046875 27.02734375 C-8.11953847 33.94297194 -15.38295429 34.51613685 -25.24609375 34.390625 C-28.125 34.1875 -28.125 34.1875 -29.125 33.1875 C-30.23341206 23.60765295 -30.23341206 23.60765295 -27.125 19.625 C-24.06338269 18.15797504 -21.27154268 17.46021639 -17.984375 16.71875 C-14.98253002 15.86108001 -13.87276456 14.77678083 -12.125 12.1875 C-11.27721409 9.6192074 -10.56198542 7.0603458 -9.93359375 4.4296875 C-8.18393674 -0.42201841 -4.47701554 -0.05933394 0 0 Z " fill="#00AEEF" transform="translate(358.125,51.8125)"/>
<path d="M0 0 C2.69204053 2.25312088 3.85999017 4.09443734 4.39868164 7.57861328 C4.5757527 10.72877709 4.59449996 13.84518036 4.5625 17 C4.58634766 18.08023438 4.61019531 19.16046875 4.63476562 20.2734375 C4.62019736 28.14029978 4.62019736 28.14029978 1.68359375 32.2109375 C-1.88252935 34.5883529 -3.79459081 34.75096593 -8 34 C-10.68359375 32.2109375 -10.68359375 32.2109375 -13 29 C-13.72075169 24.9876384 -13.65225273 21.06555617 -13.5625 17 C-13.57345703 15.91976562 -13.58441406 14.83953125 -13.59570312 13.7265625 C-13.52326001 5.90270649 -13.52326001 5.90270649 -11.15234375 1.8125 C-7.38260646 -1.36201561 -4.60571821 -1.31591949 0 0 Z " fill="#00AEEF" transform="translate(185,52)"/>
<path d="M0 0 C2.69204053 2.25312088 3.85999017 4.09443734 4.39868164 7.57861328 C4.5757527 10.72877709 4.59449996 13.84518036 4.5625 17 C4.58634766 18.08023438 4.61019531 19.16046875 4.63476562 20.2734375 C4.62019736 28.14029978 4.62019736 28.14029978 1.68359375 32.2109375 C-1.88252935 34.5883529 -3.79459081 34.75096593 -8 34 C-10.68359375 32.2109375 -10.68359375 32.2109375 -13 29 C-13.72075169 24.9876384 -13.65225273 21.06555617 -13.5625 17 C-13.57345703 15.91976562 -13.58441406 14.83953125 -13.59570312 13.7265625 C-13.52326001 5.90270649 -13.52326001 5.90270649 -11.15234375 1.8125 C-7.38260646 -1.36201561 -4.60571821 -1.31591949 0 0 Z " fill="#00AEEF" transform="translate(147,52)"/>
<path d="M0 0 C2.375 1.375 2.375 1.375 4 4 C4.38292615 7.69442839 4.37260476 11.30449375 4 15 C2.35962605 16.64037395 0.50523159 16.24911331 -1.75 16.3125 C-5.25645383 16.26233614 -6.87708817 16.06271012 -10.0625 14.4375 C-12.64287006 11.19122799 -13.07252219 9.13376477 -13 5 C-9.54097473 -0.68268437 -6.33721567 -1.68130212 0 0 Z " fill="#00AEEF" transform="translate(90,52)"/>
<path d="M0 0 C3.81227054 0.0968635 6.1462875 0.89741948 9.1875 3.3125 C11.1875 6.3125 11.1875 6.3125 11.125 9.75 C10.1875 13.3125 10.1875 13.3125 8.0625 15.8125 C4.23786816 17.80796009 2.29118679 17.50629979 -1.8125 16.3125 C-4.25 14.875 -4.25 14.875 -5.8125 12.3125 C-6.24329439 8.93703509 -6.31726088 5.6814854 -5.8125 2.3125 C-3.8125 0.3125 -3.8125 0.3125 0 0 Z " fill="#00AEEF" transform="translate(234.8125,50.6875)"/>
<path d="M0 0 C2.26166232 3.39249348 2.24515545 4.65201501 2.1875 8.625 C2.18105469 9.60726562 2.17460937 10.58953125 2.16796875 11.6015625 C2 14 2 14 1 15 C-3.2255671 15.45398655 -6.95351477 15.40078158 -10.9375 13.875 C-13.65095216 11.40822531 -14.35277489 9.59569506 -15 6 C-14.13456339 2.82673245 -13.32755853 1.32755853 -11 -1 C-7.08566921 -2.73970257 -3.86168222 -1.43025268 0 0 Z " fill="#00AEEF" transform="translate(300,53)"/>
<path d="M0 0 C0.99 0 1.98 0 3 0 C3 4.95 3 9.9 3 15 C-4.50769231 15.36923077 -4.50769231 15.36923077 -7 13.5 C-7.33 13.005 -7.66 12.51 -8 12 C-8.33 12.99 -8.66 13.98 -9 15 C-11.31 14.67 -13.62 14.34 -16 14 C-17.25 7.375 -17.25 7.375 -15 4 C-11.375 3.8125 -11.375 3.8125 -8 4 C-7.67 4.66 -7.34 5.32 -7 6 C-6.34 5.34 -5.68 4.68 -5 4 C-2.375 3.875 -2.375 3.875 0 4 C0 2.68 0 1.36 0 0 Z M-2 6 C-2.66 7.32 -3.32 8.64 -4 10 C-2.515 10.99 -2.515 10.99 -1 12 C-0.67 10.35 -0.34 8.7 0 7 C-0.66 6.67 -1.32 6.34 -2 6 Z " fill="#FFFFFF" transform="translate(369,99)"/>
<path d="M0 0 C4.29 0 8.58 0 13 0 C13 3.63 13 7.26 13 11 C12.01 11 11.02 11 10 11 C10 8.03 10 5.06 10 2 C9.34 2 8.68 2 8 2 C7.957279 3.66611905 7.95936168 5.33382885 8 7 C8.33 7.33 8.66 7.66 9 8 C9.125 11 9.125 11 9 14 C8 15 8 15 4.4375 15.0625 C3.303125 15.041875 2.16875 15.02125 1 15 C-2.05959834 10.09530038 -0.65891644 5.53489811 0 0 Z M3 2 C3 2.66 3 3.32 3 4 C3.66 3.67 4.32 3.34 5 3 C4.34 2.67 3.68 2.34 3 2 Z " fill="#FFFFFF" transform="translate(242,103)"/>
<path d="M0 0 C4.62 0 9.24 0 14 0 C15.28317892 3.84953676 15.06643637 6.94738135 15 11 C13.68 11 12.36 11 11 11 C11 8.36 11 5.72 11 3 C10.34 3 9.68 3 9 3 C9 5.64 9 8.28 9 11 C8.01 11 7.02 11 6 11 C5.87625 9.865625 5.7525 8.73125 5.625 7.5625 C5.41875 6.386875 5.2125 5.21125 5 4 C4.34 3.67 3.68 3.34 3 3 C3 5.64 3 8.28 3 11 C2.01 11 1.02 11 0 11 C0 7.37 0 3.74 0 0 Z " fill="#FFFFFF" transform="translate(325,103)"/>
<path d="M0 0 C4.62 0 9.24 0 14 0 C14 3.63 14 7.26 14 11 C13.01 11 12.02 11 11 11 C11 8.36 11 5.72 11 3 C10.34 3 9.68 3 9 3 C9 5.64 9 8.28 9 11 C7.68 11 6.36 11 5 11 C5 8.36 5 5.72 5 3 C4.34 3 3.68 3 3 3 C3 5.64 3 8.28 3 11 C2.01 11 1.02 11 0 11 C0 7.37 0 3.74 0 0 Z " fill="#FFFFFF" transform="translate(216,103)"/>
<path d="M0 0 C2.97 0 5.94 0 9 0 C8.34 2.31 7.68 4.62 7 7 C7.66 7.66 8.32 8.32 9 9 C9.1875 11.5625 9.1875 11.5625 9 14 C8 15 8 15 6.15234375 15.09765625 C4.1015625 15.06510417 2.05078125 15.03255208 0 15 C-1.15774649 10.36901402 -2.19218189 4.38436379 0 0 Z M3 2 C3 2.66 3 3.32 3 4 C3.66 3.67 4.32 3.34 5 3 C4.34 2.67 3.68 2.34 3 2 Z M2 11 C6 12 6 12 6 12 Z " fill="#FFFFFF" transform="translate(268,103)"/>
<path d="M0 0 C0.99 0 1.98 0 3 0 C3.33 3.63 3.66 7.26 4 11 C4.99 11.33 5.98 11.66 7 12 C7.33 8.04 7.66 4.08 8 0 C8.99 0 9.98 0 11 0 C11.08107583 1.93681161 11.13922475 3.8745934 11.1875 5.8125 C11.22230469 6.89144531 11.25710938 7.97039062 11.29296875 9.08203125 C11 12 11 12 9.71484375 13.90234375 C8 15 8 15 4.375 14.75 C1 14 1 14 0 13 C-0.07258946 10.81360547 -0.08373783 8.62499611 -0.0625 6.4375 C-0.05347656 5.23996094 -0.04445313 4.04242188 -0.03515625 2.80859375 C-0.02355469 1.88175781 -0.01195312 0.95492187 0 0 Z " fill="#FFFFFF" transform="translate(288,99)"/>
<path d="M0 0 C2.64 0 5.28 0 8 0 C8.33 3.63 8.66 7.26 9 11 C2.9453125 11.1953125 2.9453125 11.1953125 1 11 C0.34 10.34 -0.32 9.68 -1 9 C-0.625 6.375 -0.625 6.375 0 4 C1.32 3.67 2.64 3.34 4 3 C2.68 3 1.36 3 0 3 C0 2.01 0 1.02 0 0 Z M4 6 C3.67 6.66 3.34 7.32 3 8 C3.66 8 4.32 8 5 8 C4.67 7.34 4.34 6.68 4 6 Z " fill="#FFFFFF" transform="translate(232,103)"/>
<path d="M0 0 C6.15234375 -0.09765625 6.15234375 -0.09765625 8 0 C9 1 9 1 9.09765625 3.28515625 C9.08605469 4.20167969 9.07445312 5.11820312 9.0625 6.0625 C9.05347656 6.98160156 9.04445313 7.90070313 9.03515625 8.84765625 C9.02355469 9.55792969 9.01195312 10.26820312 9 11 C8.01 11 7.02 11 6 11 C6 8.36 6 5.72 6 3 C5.01 3 4.02 3 3 3 C3 5.64 3 8.28 3 11 C2.01 11 1.02 11 0 11 C0 7.37 0 3.74 0 0 Z " fill="#FFFFFF" transform="translate(257,103)"/>
<path d="M0 0 C0.99 0 1.98 0 3 0 C3 0.99 3 1.98 3 3 C3.99 3 4.98 3 6 3 C6 3.99 6 4.98 6 6 C5.01 6 4.02 6 3 6 C3.34786708 7.97536745 3.34786708 7.97536745 4 10 C4.66 10.33 5.32 10.66 6 11 C6 11.99 6 12.98 6 14 C4.35 13.67 2.7 13.34 1 13 C-0.6290678 8.20862412 -1.20577428 4.94367454 0 0 Z " fill="#FFFFFF" transform="translate(346,100)"/>
<path d="M0 0 C1.9375 0.3125 1.9375 0.3125 4 1 C4.9702889 3.91086669 5.16467847 5.90223685 5.1875 8.9375 C5.20167969 9.79214844 5.21585937 10.64679688 5.23046875 11.52734375 C4.98703556 14.13909303 4.3178268 15.75500652 3 18 C2.01 18 1.02 18 0 18 C0.08378906 17.28714844 0.16757812 16.57429688 0.25390625 15.83984375 C0.84189161 10.30980427 1.09194306 5.45971529 0 0 Z " fill="#FFFFFF" transform="translate(300,98)"/>
<path d="M0 0 C0.99 0 1.98 0 3 0 C3 3.96 3 7.92 3 12 C4.65 12 6.3 12 8 12 C8 12.99 8 13.98 8 15 C5.36 15 2.72 15 0 15 C0 10.05 0 5.1 0 0 Z " fill="#FFFFFF" transform="translate(311,99)"/>
<path d="M0 0 C0.99 0 1.98 0 3 0 C2.91621094 0.79664062 2.83242188 1.59328125 2.74609375 2.4140625 C1.95272862 10.24114462 1.95272862 10.24114462 3 18 C1.0625 17.6875 1.0625 17.6875 -1 17 C-1.9702889 14.08913331 -2.16467847 12.09776315 -2.1875 9.0625 C-2.20167969 8.20785156 -2.21585937 7.35320312 -2.23046875 6.47265625 C-1.98703556 3.86090697 -1.3178268 2.24499348 0 0 Z " fill="#FFFFFF" transform="translate(284,98)"/>
<path d="M0 0 C0.99 0 1.98 0 3 0 C3 4.95 3 9.9 3 15 C2.01 15 1.02 15 0 15 C0 10.05 0 5.1 0 0 Z " fill="#FFFFFF" transform="translate(211,99)"/>
<path d="M0 0 C0.99 0 1.98 0 3 0 C3 3.63 3 7.26 3 11 C2.01 11 1.02 11 0 11 C0 7.37 0 3.74 0 0 Z " fill="#FFFFFF" transform="translate(341,103)"/>
<path d="M0 0 C0.99 0 1.98 0 3 0 C3 3.63 3 7.26 3 11 C2.01 11 1.02 11 0 11 C0 7.37 0 3.74 0 0 Z " fill="#FFFFFF" transform="translate(320,103)"/>
<path d="M0 0 C0.99 0 1.98 0 3 0 C3 0.99 3 1.98 3 3 C2.01 3 1.02 3 0 3 C0 2.01 0 1.02 0 0 Z " fill="#FFFFFF" transform="translate(341,99)"/>
<path d="M0 0 C0.99 0 1.98 0 3 0 C3 0.99 3 1.98 3 3 C2.01 3 1.02 3 0 3 C0 2.01 0 1.02 0 0 Z " fill="#FFFFFF" transform="translate(320,99)"/>
<path d="M0 0 C0.99 0 1.98 0 3 0 C3 0.99 3 1.98 3 3 C2.01 3 1.02 3 0 3 C0 2.01 0 1.02 0 0 Z " fill="#FFFFFF" transform="translate(252,99)"/>
</svg>
